<svg xmlns="http://www.w3.org/2000/svg" viewBox="0 0 112 112" role="img" aria-labelledby="title">
  <title id="title">Hestia home and hearth</title>
  <rect x="2" y="2" width="108" height="108" rx="30" fill="#eee8fa"/>
  <path d="M24 52 56 25 88 52M32 48v35h48V48" fill="none" stroke="#5946a8" stroke-width="5" stroke-linecap="round" stroke-linejoin="round"/>
  <path d="M56 47c3 10 14 12 14 23a14 14 0 0 1-28 0c0-8 6-12 9-17 0 6 2 8 4 8 4-4 4-8 1-14Z" fill="#c96736"/>
  <path d="M56 66c3 4 6 6 6 10a6 6 0 0 1-12 0c0-4 4-6 6-10Z" fill="#fff2d5"/>
</svg>
